<svg xmlns="http://www.w3.org/2000/svg" viewBox="0 0 210 50">
    <path fill="#521a17"
          d="M149.4,3.8c2.8,0,5.6,0,8.5,0c-4,11-8,22-12,33c-3.2,0-6.4,0-9.6,0c-0.9-4.9-1.8-9.9-2.7-14.8 c-0.8,1.5-1.3,3.2-1.9,4.8c-0.6,1.6-1.2,3.3-1.7,4.9c-0.6,1.7-1.2,3.3-1.8,5c-2.7,0-5.4,0-8.1,0c0-0.6,10.9-31.8,11.5-32.9 c3,0,5.9,0,9,0c1,5.6,1.8,11.3,2.8,16.9c0.8-1.8,1.4-3.7,2.1-5.6c0.7-1.9,1.3-3.8,2-5.7C148.1,7.6,148.7,5.7,149.4,3.8L149.4,3.8z"></path>
    <path fill="#521a17"
          d="M190.8,17.5c0.4,0,0.6,0.1,0.9,0.1c1.2,0,2.5,0,3.7,0.1c2.2,0.1,3.4-2.3,3.2-3.7c-0.1-0.9-0.6-1.4-1.5-1.5 c-1.5,0-3,0-4.5,0C192,14.1,191.4,15.7,190.8,17.5L190.8,17.5z M185.9,3.8c0.3,0,0.6,0,0.9,0c3.9,0,7.8,0,11.8,0 c1,0,2.1,0.1,3.1,0.4c3.5,1,6,4,6.5,7.7c0.2,1.4,0.1,2.8-0.3,4.2c-1.1,3.8-3.7,6.1-7.5,6.9c-0.7,0.2-1.5,0.2-2.4,0.3 c0.9,4.5,1.8,9,2.7,13.5c-3.3,0-6.6,0-9.9,0c-0.6-4.4-1.2-8.8-1.8-13.1c-0.1,0-0.1,0-0.2,0c-0.8,2.2-1.6,4.4-2.3,6.6 c-0.8,2.2-1.6,4.4-2.3,6.6c-3.2,0-6.4,0-9.7,0C178.2,25.8,182,14.8,185.9,3.8L185.9,3.8z"></path>
    <path fill="#521a17"
          d="M51.8,3.8c3.2,0,6.2,0,9.4,0c-0.1,0.4-0.2,0.7-0.3,1.1c-2.5,7.1-5,14.2-7.5,21.4c-0.1,0.3-0.2,0.5-0.3,0.8 c-0.5,1.3,0.5,2.3,1.5,2.5c1,0.2,1.9-0.1,2.6-0.8c0.6-0.6,1-1.4,1.2-2.2c2.5-7.2,5-14.3,7.6-21.5c0.1-0.4,0.3-0.7,0.4-1.1 c3.2,0,6.4,0,9.7,0c-0.1,0.3-0.1,0.6-0.2,0.8c-3.1,8.7-6.1,17.4-9.2,26.1c-0.4,1-0.8,2-1.2,3c-1,2.2-2.7,3.2-5.1,3.1 c-3.5,0-7,0-10.5,0c-1.1,0-2.1,0-3.2,0c-1.7,0-2.9-0.8-3.5-2.3c-0.7-1.8-0.9-3.6-0.3-5.4c2.9-8.1,5.7-16.3,8.6-24.4 C51.5,4.4,51.6,4.1,51.8,3.8L51.8,3.8z"></path>
    <path fill="#521a17"
          d="M92.3,36.8c3.9-11,7.7-22,11.6-32.9c3.3,0,6.5,0,9.8,0c-1.5,4.3-2.9,8.4-4.4,12.6c0,0,0.1,0.1,0.1,0.1 c0.1-0.1,0.2-0.2,0.3-0.3c0.1-0.1,0.2-0.3,0.3-0.4c3-3.8,6-7.5,9-11.3c0.4-0.5,0.9-0.8,1.6-0.8c2.9,0,5.8,0,8.7,0 c0,0.4-0.3,0.6-0.5,0.8c-3.8,4.5-7.6,9.1-11.4,13.6c-0.4,0.4-0.5,0.8-0.4,1.4c0.8,5.3,1.5,10.6,2.2,15.9c0.1,0.4,0.1,0.8,0.1,1.2 c-3.1,0-6,0-9.2,0c-0.8-5.4-1.4-10.8-2.3-16.1c-1.1,2.6-2,5.3-2.9,8c-1,2.7-1.9,5.4-2.9,8.1C98.8,36.8,95.6,36.8,92.3,36.8 L92.3,36.8z"></path>
    <path fill="#521a17"
          d="M182.2,4c-1,2.7-1.9,5.3-2.9,8c-0.3,0-0.7,0-1,0c-3.1,0-6.2,0-9.4,0c-1.2,0-1.5,0.2-1.9,1.3 c-0.3,0.9-0.6,1.7-0.9,2.6c-0.3,0.9-0.1,1.2,0.9,1.2c2.7,0,5.3,0,8,0c0.8,0,1.5,0,2.5,0c-0.8,2.4-1.6,4.6-2.4,6.9c-0.4,0-0.7,0-1,0 c-3.2,0-6.4,0-9.6,0c-1.1,0-1.4,0.2-1.7,1.2c-0.3,0.8-0.6,1.7-0.9,2.5c-0.4,1.1-0.1,1.4,1,1.5c3.1,0,6.2,0,9.3,0c0.3,0,0.6,0,1.1,0 c-0.9,2.6-1.8,5-2.6,7.6c-0.3,0-0.6,0-0.9,0c-5.4,0-10.8,0-16.1,0c-1.2,0-2-0.5-2.5-1.5c-0.7-1.3-0.7-2.7-0.2-4.1 c0.5-1.5,1.1-3,1.6-4.6c2-5.8,4.1-11.6,6.1-17.4c0.3-0.9,0.7-1.8,1.2-2.6c0.9-1.5,2.2-2.4,4-2.6c0.7-0.1,1.4-0.2,2.1-0.2 c5.2,0,10.4,0.1,15.6,0.1C181.6,3.9,181.8,3.9,182.2,4L182.2,4z"></path>
    <path fill="#521a17"
          d="M101,3.8c-1,2.8-1.9,5.5-2.9,8.2c-0.3,0-0.6,0-1,0c-2.8,0-5.6,0-8.5,0c-0.3,0-0.6,0-0.9,0 c-1.3,0-2,0.6-2.4,1.8C84.7,15.9,84,18,83.3,20c-0.8,2.3-1.6,4.6-2.4,6.9c-0.5,1.4-0.2,1.7,1.2,1.6c3,0,6.1,0,9.1,0 c0.3,0,0.6,0,1.1,0c-1,2.8-1.9,5.5-2.9,8.3c-0.4,0-0.7,0-1,0c-4.6,0-9.3-0.1-13.9,0c-3.3,0.1-4.3-2-4.6-4.1 c-0.2-1.5-0.1-3,0.4-4.4c2.4-6.7,4.7-13.4,7.1-20.1c0.3-0.8,0.7-1.6,1.1-2.3c0.8-1.2,1.9-1.9,3.4-2c0.3,0,0.7,0,1,0 c5.6,0,11.3,0,16.9,0C100.2,3.8,100.5,3.8,101,3.8L101,3.8z"></path>
    <path fill="#521a17"
          d="M45.2,2.1C44.3,0.8,42.5,0,40.9,0c0,0,0,0,0,0c-5.7,0-23.5,0-23.5,0C17.2,0.3,0,37,0,37c1.3,0,3.7,0,4.9,0 c0.6,0,1-0.2,1.4-0.7c1.7-2.3,3.5-4.6,5.3-6.9C19,19.9,25.4,13.7,32.6,4.2c0,0,0,0,0,0c-5,10.9-9.9,21.7-15,32.8 c0.4,0,0.7,0,0.9,0c4.3,0,8.6,0,13,0c1.9,0,3.5-0.5,5-1.7c2.4-1.8,3.9-4.2,4.6-7.1c0.9-3.7,0.2-6.9-2.6-9.6 c-0.1-0.1-0.1-0.2-0.2-0.3c0.3,0,0.4-0.1,0.6-0.1c2.8-0.3,4.8-1.7,6.3-4c1-1.5,1.6-3.2,1.8-4.9C47.3,6.7,46.8,4.2,45.2,2.1 L45.2,2.1z"></path>
    <polygon fill="#3b3736"
             points="27.5,38.2 31.2,38.2 30,42.3 34.1,42.3 35.3,38.2 39.1,38.2 35.6,49.8 31.8,49.8 33.2,45.1 29.2,45.1 27.7,49.8 24,49.8 27.5,38.2"></polygon>
    <polygon fill="#3b3736"
             points="40.8,38.2 50.8,38.2 50.1,40.7 43.8,40.7 43.2,42.5 49,42.5 48.3,44.9 42.5,44.9 41.8,47.2 48.3,47.2 47.5,49.8 37.3,49.8 40.8,38.2"></polygon>
    <path fill="#3b3736"
          d="M56.7,45.4l-0.1-4.2l-2.6,4.2H56.7L56.7,45.4z M56.7,47.9h-4.2l-1.2,1.9h-3.8l8-11.6h4.1l1,11.6h-3.9 L56.7,47.9L56.7,47.9z"></path>
    <polygon fill="#3b3736"
             points="62.5,38.2 66.4,38.2 66.6,46.6 71.8,38.2 75.6,38.2 67.6,49.8 63.6,49.8 62.5,38.2"></polygon>
    <polygon fill="#3b3736"
             points="74.9,38.2 79,38.2 80.3,42.1 83.9,38.2 88,38.2 81.3,45 79.8,49.8 76.1,49.8 77.5,45 74.9,38.2"></polygon>
    <polygon fill="#3b3736"
             points="88.5,38.2 92.2,38.2 89.5,47 95.4,47 94.5,49.8 85,49.8 88.5,38.2"></polygon>
    <polygon fill="#3b3736" points="99.1,38.2 102.9,38.2 99.4,49.8 95.6,49.8 99.1,38.2"></polygon>
    <polygon fill="#3b3736"
             points="104.8,38.2 114,38.2 113.3,40.7 107.8,40.7 107.2,42.7 111.9,42.7 111.2,45.1 106.5,45.1 105.1,49.8 101.3,49.8 104.8,38.2"></polygon>
    <polygon fill="#3b3736"
             points="114.5,38.2 125.8,38.2 124.9,41.1 121.1,41.1 118.5,49.8 114.8,49.8 117.4,41.1 113.6,41.1 114.5,38.2"></polygon>
    <path fill="#3b3736"
          d="M137.6,45.1l3,0.9c-0.5,0.9-1.1,1.6-1.7,2.2c-0.7,0.6-1.4,1-2.2,1.3c-0.8,0.3-1.7,0.4-2.8,0.4 c-1.3,0-2.3-0.2-3-0.5c-0.7-0.4-1.2-1-1.6-1.9c-0.3-0.9-0.3-2.1,0.2-3.5c0.6-1.9,1.6-3.4,2.9-4.4c1.4-1,3-1.5,5-1.5 c1.5,0,2.6,0.3,3.3,0.9c0.7,0.6,1.1,1.5,1.1,2.7l-3.5,0.7c0-0.4-0.1-0.6-0.1-0.8c-0.1-0.3-0.3-0.5-0.6-0.6 c-0.3-0.1-0.6-0.2-0.9-0.2c-0.8,0-1.6,0.3-2.2,1c-0.5,0.5-0.9,1.2-1.2,2.3c-0.4,1.3-0.5,2.2-0.2,2.6c0.3,0.5,0.8,0.7,1.5,0.7 c0.7,0,1.3-0.2,1.8-0.6C136.8,46.4,137.2,45.8,137.6,45.1L137.6,45.1z"></path>
    <path fill="#3b3736"
          d="M146.4,42.9h1.6c0.2,0,0.5-0.1,1-0.2c0.3,0,0.5-0.2,0.7-0.4c0.2-0.2,0.4-0.4,0.4-0.7c0.1-0.4,0.1-0.7-0.1-0.9 c-0.2-0.2-0.6-0.3-1.3-0.3h-1.6L146.4,42.9L146.4,42.9z M140.6,49.8l3.5-11.6h6.2c1.2,0,2,0.1,2.6,0.3c0.6,0.2,0.9,0.5,1.2,1.1 c0.2,0.5,0.2,1.1,0,1.9c-0.2,0.6-0.5,1.2-0.9,1.7c-0.4,0.5-0.9,0.8-1.5,1.1c-0.4,0.2-0.9,0.3-1.4,0.5c0.4,0.1,0.7,0.3,0.8,0.4 c0.1,0.1,0.2,0.3,0.4,0.6c0.2,0.3,0.3,0.5,0.3,0.7l0.8,3.3h-4.2l-0.9-3.5c-0.1-0.5-0.2-0.8-0.4-0.9c-0.2-0.2-0.5-0.3-0.8-0.3h-0.3 l-1.4,4.7H140.6L140.6,49.8z"></path>
    <path fill="#3b3736"
          d="M160.9,45.4l-0.1-4.2l-2.6,4.2H160.9L160.9,45.4z M160.9,47.9h-4.2l-1.2,1.9h-3.8l8-11.6h4.1l1,11.6h-3.9 L160.9,47.9L160.9,47.9z"></path>
    <polygon fill="#3b3736"
             points="168.8,38.2 172.3,38.2 174.9,44.6 176.8,38.2 180.3,38.2 176.8,49.8 173.3,49.8 170.7,43.5 168.8,49.8 165.3,49.8 168.8,38.2 "></polygon>
    <polygon fill="#3b3736"
             points="182.1,38.2 192.1,38.2 191.3,40.7 185.1,40.7 184.5,42.5 190.3,42.5 189.6,44.9 183.8,44.9 183.1,47.2 189.5,47.2 188.7,49.8 178.6,49.8 182.1,38.2 "></polygon>
    <path fill="#3b3736"
          d="M190.5,46l3.6-0.2c-0.1,0.6-0.1,1,0.1,1.3c0.2,0.5,0.7,0.7,1.4,0.7c0.5,0,1-0.1,1.3-0.4 c0.4-0.2,0.6-0.5,0.7-0.8c0.1-0.3,0-0.6-0.2-0.8c-0.2-0.2-0.8-0.5-1.7-0.7c-1.5-0.4-2.6-0.8-3.1-1.4c-0.5-0.6-0.7-1.3-0.4-2.2 c0.2-0.6,0.5-1.2,1-1.7c0.5-0.5,1.2-0.9,2-1.2c0.8-0.3,1.9-0.5,3.1-0.5c1.5,0,2.6,0.3,3.3,0.8c0.6,0.5,0.9,1.4,0.7,2.6l-3.6,0.2 c0.1-0.5,0-0.9-0.2-1.1c-0.2-0.2-0.6-0.4-1.1-0.4c-0.4,0-0.8,0.1-1.1,0.3c-0.3,0.2-0.4,0.4-0.5,0.6c-0.1,0.2,0,0.4,0.1,0.5 c0.1,0.2,0.5,0.3,1.1,0.4c1.5,0.3,2.6,0.7,3.2,1c0.6,0.3,1,0.8,1.2,1.3c0.2,0.5,0.2,1.1,0,1.7c-0.2,0.7-0.6,1.4-1.3,2.1 c-0.6,0.6-1.4,1.1-2.2,1.4c-0.9,0.3-1.9,0.5-3.1,0.5c-2.1,0-3.4-0.4-3.9-1.1C190.4,48.1,190.3,47.1,190.5,46L190.5,46z"></path>
</svg>
